<?xml version="1.0" standalone="yes"?>
<svg xmlns="http://www.w3.org/2000/svg" width="549" height="503">
<path style="fill:#ffffff; stroke:none;" d="M0 0L0 12L1 12C3.07459 5.89816 7.51946 1.72174 14 1L0 0z"/>
<path style="fill:#dd1955; stroke:none;" d="M0 20L35 1C19.1366 -5.65652 0.0493542 2.11407 0 20z"/>
<path style="fill:#d11850; stroke:none;" d="M241 72C230.73 67.4542 218.044 66.9063 208 72.5286C202.074 75.8459 198.143 82.6711 191 82.9807C137.891 85.2825 84.1649 83 31 83L31 31L225 31L284 31C292.976 31 304.339 32.8508 313 30.3619C330.547 25.3195 349.248 10.2897 365 1C357.841 -2.00415 346.744 0 339 0L282 0L83 0C68.4333 0 49.0049 -3.38632 35 0.638123C28.6571 2.46082 22.69 7.15921 17 10.4213C12.4447 13.0329 2.84577 16.3129 0.603395 21.3287C-1.80424 26.7142 0 36.1612 0 42L0 91C0 98.4368 -0.257184 106.542 7.04012 110.91C12.6771 114.285 20.715 113 27 113L70 113L137 113C147.386 113 159.856 114.884 170 112.606C177.938 110.824 185.973 104.278 193 100.281C208.502 91.4625 227.346 83.4308 241 72z"/>
<path style="fill:#c7174b; stroke:none;" d="M313 30L313 31L519 31L519 83L363 83L327 83C320.476 83 314.028 82.5799 309.419 88.1049C302.595 96.284 306 113.99 306 124L306 219C313.907 216.105 331.209 208.479 335.972 201.39C339.472 196.182 337 183.144 337 177L337 113L436 113C452.485 113 475.219 117.085 491 112.351C498.365 110.142 505.349 104.503 512 100.719C520.365 95.9604 528.633 91.0376 537 86.2809C540.455 84.3163 545.874 82.3482 547.972 78.787C550.582 74.3566 549 65.9879 549 61L549 20C549 12.7851 549.21 6.1181 541.996 2.13965C530.373 -4.27023 508.005 0 495 0L407 0C394.452 0 378.115 -2.78268 366 0.498444C347.145 5.60498 330.933 22.2724 313 30z"/>
<path style="fill:#ffffff; stroke:none;" d="M537 0L537 1L548 9L549 9L549 0L537 0M31 31L31 83L139 83C156.779 83 175.291 84.5002 192.996 82.9414C198.449 82.4612 201.744 77.4082 206.001 74.4429C211.78 70.4166 218.933 68.3077 226 68.5949C244.59 69.3503 260.224 85.2167 259.981 104C259.489 142.114 201.58 151.003 192 113L48 113C33.6121 113 7.45477 118.65 1 102L0 102L0 503L318 503L318 502C303.125 501.319 300.219 488.497 288.791 483.603C284.706 481.854 278.37 483 274 483L240 483C231.866 483 223.912 483.408 218.653 475.985C211.139 465.378 216 439.676 216 427L216 298C216 271.656 218.215 244.236 215.941 218C215.131 208.647 206.538 203.597 207.04 193C207.548 182.285 216.435 172.845 227 171.301C240.02 169.398 252.982 179.809 253.903 193C254.571 202.582 246.397 208.183 246.019 217C244.282 257.5 246 298.458 246 339L246 452C257.791 452 277.962 455.942 288.816 451.397C293.238 449.544 296.201 443.509 300.001 440.519C309.743 432.852 322.445 430.892 334 435.465C365.976 448.118 361.277 500.338 325 502L325 503L549 503L549 105L548 105C538.01 119.024 508.528 113 493 113L337 113L337 277C337 302.745 333.316 331.569 337.147 357C338.078 363.177 343.604 367.578 344.674 374C347.305 389.784 332.374 403.371 317 400.671C303.594 398.317 295.042 383.965 298.789 371C300.19 366.152 304.505 362.799 305.683 358C307.541 350.431 306 340.783 306 333L306 151L306 108C306 100.55 305.174 92.8101 311.108 87.2137C316.21 82.4019 322.499 83 329 83L366 83L519 83L519 31L31 31z"/>
<path style="fill:#c7174b; stroke:none;" d="M171 112L171 113L192 113C193.187 120.611 197.968 126.823 204 131.471C209.491 135.702 216.109 137.912 223 137.996C241.786 138.226 259.059 126.029 259.961 106C260.424 95.7145 254.665 73.1613 241 73.1481C237.209 73.1445 233.159 76.4808 230 78.2809L207 91.5787C195.108 98.3966 183.423 106.2 171 112z"/>
<path style="fill:#bd1647; stroke:none;" d="M548 79L491 112L491 113L529 113C535.453 113 542.125 113.6 546.566 107.945C550.17 103.357 549 96.4652 549 91C549 87.0172 549.552 82.6986 548 79z"/>
<path style="fill:#ffffff; stroke:none;" d="M223 87.5077C202.19 90.5881 207.078 122.051 228 118.786C247.904 115.68 242.608 84.6052 223 87.5077z"/>
<path style="fill:#dd1955; stroke:none;" d="M216 367C223.128 363.206 242.061 356.133 245.397 348.671C247.283 344.452 246 337.547 246 333L246 298C246 271.613 242.221 242.064 246.147 216C247.187 209.098 253.317 204.445 253.907 197C254.819 185.483 248.329 175.008 237 171.789C223.13 167.847 207.767 177.153 207.04 192C206.47 203.65 215.537 209.722 215.981 220C218.089 268.795 216 318.154 216 367z"/>
<path style="fill:#bd1647; stroke:none;" d="M337 202C329.265 204.448 311.505 212.597 307.028 219.529C302.548 226.464 306 244.809 306 253L306 343C306 347.631 306.97 353.581 305.4 358C301.689 368.451 294.65 374.835 299.479 387C306.935 405.782 335.761 405.749 343.387 387C348.271 374.99 341.158 368.43 337.589 358C335.331 351.404 337 341.929 337 335L337 282L337 202z"/>
<path style="fill:#d11850; stroke:none;" d="M246 452L246 350C238.397 352.767 221.196 360.075 217.028 367.21C214.082 372.252 216 382.303 216 388L216 440C216 452.223 210.815 477.427 226 482.196C239.237 486.353 258.154 483 272 483C276.729 483 283.452 481.797 287.896 483.603C296.323 487.029 301.065 503.897 313 499.593C323.365 495.856 333.471 488.106 343 482.576C346.583 480.496 352.695 478.197 354.972 474.61C365.824 457.522 341.937 435.453 327 433.3C316.542 431.792 306.099 434.421 298.015 441.326C294.602 444.24 292.139 449.7 287.907 451.397C277.041 455.753 257.722 452 246 452z"/>
<path style="fill:#ffffff; stroke:none;" d="M317 452.558C297.277 457.726 305.803 488.526 325 483.207C345.108 477.635 337.243 447.253 317 452.558z"/>
<path style="fill:#c7174b; stroke:none;" d="M311 501C329.291 506.784 351.99 496.079 355 476C341.211 480.056 322.026 491.769 311 501z"/>
</svg>
